<?xml version="1.0" standalone="no"?>
<!DOCTYPE svg PUBLIC "-//W3C//DTD SVG 20010904//EN"
 "http://www.w3.org/TR/2001/REC-SVG-20010904/DTD/svg10.dtd">
<svg version="1.0" xmlns="http://www.w3.org/2000/svg"
 width="2658.000000pt" height="2658.000000pt" viewBox="0 0 2658.000000 2658.000000"
 preserveAspectRatio="xMidYMid meet">
<metadata>
Created by potrace 1.11, written by Peter Selinger 2001-2013
</metadata>
<g transform="translate(0.000000,2658.000000) scale(0.100000,-0.100000)"
fill="#000000" stroke="none">
<path d="M7110 16634 c-11 -26 -20 -48 -20 -51 0 -2 -8 -23 -19 -46 -10 -23
-62 -145 -116 -272 -53 -126 -105 -248 -115 -270 -38 -87 -70 -162 -272 -640
-28 -66 -59 -138 -69 -160 -9 -22 -81 -191 -159 -375 -78 -184 -150 -353 -159
-375 -10 -22 -35 -80 -56 -130 -40 -98 -52 -126 -84 -197 -11 -26 -21 -50 -21
-53 0 -2 -11 -28 -24 -57 -14 -29 -43 -98 -66 -153 -23 -55 -50 -118 -60 -140
-9 -22 -39 -91 -65 -153 -26 -62 -51 -115 -56 -117 -4 -3 -33 45 -64 107 -32
62 -61 118 -65 123 -4 6 -44 82 -90 170 -45 88 -95 183 -110 210 -15 28 -55
104 -90 170 -34 66 -75 143 -90 170 -15 28 -58 109 -95 180 -100 192 -173 331
-215 410 -21 39 -66 124 -100 190 -35 66 -66 125 -71 130 -5 7 -334 10 -961 9
-524 -1 -956 -2 -959 -3 -4 0 -10 -22 -13 -48 -4 -27 -9 -57 -11 -68 -2 -11
-7 -41 -10 -67 l-6 -46 138 -5 c151 -5 162 -6 225 -35 78 -36 119 -90 152
-202 13 -42 15 -85 12 -195 -4 -144 -6 -160 -32 -280 -15 -73 -17 -84 -34
-175 -13 -71 -16 -85 -41 -209 -11 -57 -23 -116 -25 -130 -3 -14 -15 -80 -29
-146 -19 -93 -77 -392 -119 -612 -2 -10 -18 -92 -36 -183 -17 -91 -34 -176
-36 -190 -2 -14 -7 -36 -10 -50 -3 -14 -8 -36 -10 -50 -3 -14 -18 -90 -34
-170 -30 -149 -85 -432 -94 -485 -6 -31 -22 -115 -30 -150 -2 -11 -18 -94 -36
-185 -17 -91 -34 -174 -36 -185 -2 -11 -6 -31 -9 -45 -16 -85 -26 -138 -30
-155 -13 -49 47 94 241 575 199 495 311 773 561 1390 64 157 129 319 145 360
17 41 36 89 44 107 8 17 32 78 55 135 22 57 44 112 49 123 5 11 56 137 114
280 57 143 130 323 161 400 31 77 60 148 64 157 4 13 15 0 41 -50 19 -37 62
-119 96 -182 67 -128 173 -330 272 -520 35 -69 75 -143 87 -165 12 -22 60
-112 105 -200 45 -88 95 -182 110 -210 25 -45 88 -165 236 -450 l52 -100 642
-2 c482 -1 642 2 645 10 3 7 7 23 9 37 3 14 10 50 16 80 6 30 22 114 35 185
14 72 27 139 29 150 3 17 49 253 60 310 2 11 18 94 36 185 17 91 34 176 36
190 2 14 9 45 14 70 5 25 12 56 14 70 17 91 29 154 41 215 8 39 17 81 19 95 2
14 23 122 46 240 23 118 44 224 46 235 2 11 8 43 14 70 5 28 12 61 14 75 3 14
21 111 41 215 20 105 39 201 41 215 3 14 20 104 39 200 19 96 37 193 41 215 3
22 8 43 9 46 2 3 9 32 14 65 6 32 13 70 16 84 3 14 8 41 11 60 3 19 7 42 9 50
2 8 7 29 10 45 2 17 7 41 10 55 3 14 8 41 11 60 4 19 8 42 10 50 20 100 35
178 38 193 7 30 -2 19 -24 -29z m-2611 -1589 c41 -7 107 -47 136 -82 20 -24
38 -58 184 -338 41 -77 88 -167 106 -200 35 -65 107 -201 205 -390 34 -66 81
-156 105 -200 23 -44 68 -129 100 -190 166 -317 236 -448 247 -462 19 -24 -2
-29 -111 -27 -98 2 -116 5 -153 27 -63 37 -89 70 -151 187 -118 227 -171 328
-212 405 -23 44 -71 134 -105 200 -35 66 -75 143 -90 170 -15 28 -67 127 -115
220 -48 94 -95 184 -105 200 -9 17 -48 89 -85 160 -37 72 -90 172 -117 224
-30 56 -46 96 -40 100 12 7 152 5 201 -4z"/>
<path d="M12498 14645 c-2 -2 -48 -6 -103 -9 -55 -4 -111 -9 -125 -11 -25 -5
-54 -9 -124 -21 -56 -8 -173 -52 -218 -80 -100 -63 -171 -167 -219 -319 -18
-60 -63 -244 -73 -300 -2 -16 -9 -55 -15 -85 -5 -30 -12 -71 -15 -90 -3 -19
-12 -73 -20 -120 -8 -47 -18 -110 -21 -140 -4 -30 -9 -66 -11 -80 -6 -40 -6
-202 0 -236 16 -89 78 -164 173 -209 135 -64 306 -79 888 -78 417 0 560 8 739
38 212 36 348 131 416 291 33 76 105 366 126 501 3 21 9 52 13 68 4 17 7 48 6
70 l0 40 -598 0 c-330 0 -600 -2 -602 -5 -2 -4 -50 -274 -58 -329 -2 -11 55
-14 341 -13 l342 0 0 -21 c-1 -48 -26 -127 -48 -152 -54 -62 -126 -70 -587
-69 -489 2 -541 8 -581 70 -25 37 -25 180 0 314 3 14 17 88 30 166 28 152 44
207 77 261 37 59 112 94 233 108 57 7 723 7 780 0 166 -19 192 -38 180 -134
l-6 -48 266 0 c264 0 266 0 267 21 0 12 2 30 4 41 11 57 18 139 18 211 -1 207
-112 294 -423 329 -25 3 -65 8 -90 11 -46 6 -956 14 -962 9z"/>
<path d="M20368 14644 c-2 -2 -58 -6 -123 -10 -66 -3 -123 -8 -126 -10 -3 -2
-30 -6 -60 -9 -314 -36 -451 -171 -525 -515 -8 -41 -17 -84 -20 -95 -2 -11
-13 -69 -24 -130 -11 -60 -22 -120 -24 -131 -3 -12 -7 -39 -10 -60 -4 -22 -11
-64 -16 -94 -5 -30 -12 -75 -16 -100 -3 -25 -10 -70 -14 -100 -5 -30 -7 -100
-6 -155 4 -153 45 -228 156 -285 46 -23 134 -48 199 -55 25 -3 62 -7 81 -10
132 -17 908 -25 1095 -11 361 27 512 93 603 265 27 51 56 131 67 190 2 13 6
30 9 39 3 9 7 37 10 61 3 25 8 64 12 88 l6 43 -264 0 -265 0 -22 -84 c-44
-165 -80 -175 -621 -171 -295 2 -353 4 -399 19 -66 21 -98 55 -106 110 -6 40
-1 143 11 198 2 13 7 39 10 58 2 19 9 55 14 80 5 25 12 56 14 70 9 60 41 169
62 218 43 98 92 128 239 147 46 6 605 6 650 0 17 -2 55 -7 85 -10 105 -13 126
-37 118 -140 l-4 -55 263 0 c202 0 265 3 268 13 2 6 6 30 9 52 3 22 10 72 16
110 12 78 8 200 -9 256 -15 49 -70 110 -127 141 -53 28 -154 54 -249 64 -61 7
-962 14 -967 8z"/>
<path d="M7527 14624 c-1 -1 -41 -5 -89 -8 -255 -19 -416 -114 -507 -299 -41
-84 -67 -175 -95 -332 -9 -49 -18 -101 -21 -115 -3 -13 -7 -42 -10 -65 -4 -22
-13 -71 -20 -110 -13 -64 -26 -140 -39 -220 -3 -16 -8 -44 -10 -61 -9 -51 -10
-186 -1 -234 27 -155 115 -229 330 -277 46 -10 1693 -14 1700 -4 5 8 26 115
40 201 3 19 12 70 20 114 8 43 15 80 15 82 0 2 -336 4 -746 4 -822 0 -798 -2
-824 61 -12 27 -10 93 4 154 2 11 5 23 5 28 1 4 346 7 769 7 l767 0 23 133
c12 72 24 143 27 157 3 13 7 42 11 64 3 22 8 44 10 48 7 11 54 10 -776 12
-473 1 -754 5 -753 11 0 6 4 28 7 49 11 70 18 91 43 124 50 67 6 63 838 63
l754 1 6 26 c8 41 14 72 21 116 3 22 7 43 9 46 1 3 6 25 9 50 3 25 8 56 11 70
17 81 17 100 4 101 -24 1 -1531 4 -1532 3z"/>
<path d="M9887 14624 c-1 -1 -39 -5 -84 -8 -104 -8 -253 -46 -324 -81 -172
-87 -273 -227 -325 -450 -17 -74 -19 -87 -29 -150 -3 -22 -14 -85 -24 -140
-11 -55 -22 -118 -26 -140 -9 -59 -14 -91 -31 -185 -9 -47 -17 -92 -19 -100
-1 -8 -6 -35 -10 -60 -4 -25 -9 -54 -11 -65 -3 -11 -7 -36 -10 -55 -5 -34 -26
-149 -44 -240 -5 -24 -7 -47 -4 -51 2 -4 121 -8 263 -8 l260 0 10 52 c6 29 15
80 21 114 14 86 16 96 34 193 8 47 18 101 21 120 3 19 8 49 12 65 3 17 7 39 9
50 1 11 14 85 28 165 14 80 28 159 31 175 2 17 7 41 10 55 3 14 10 52 16 85 5
33 12 69 14 80 2 11 4 28 4 37 1 26 55 81 92 95 26 10 152 12 534 10 568 -4
565 -3 584 -74 26 -97 -21 -279 -84 -325 -40 -30 -98 -36 -387 -37 -155 -1
-283 -3 -285 -5 -1 -1 138 -194 310 -428 l312 -426 280 0 c154 0 283 2 287 4
5 3 -5 22 -21 42 -65 85 -291 403 -291 410 0 5 17 14 38 20 21 7 65 29 98 50
140 91 197 199 263 507 41 186 48 389 16 480 -43 126 -171 193 -400 211 -73 6
-1133 13 -1138 8z"/>
<path d="M14847 14624 c-1 -1 -36 -5 -77 -8 -298 -26 -464 -156 -545 -425 -12
-42 -26 -96 -30 -121 -4 -25 -9 -54 -11 -65 -4 -19 -20 -108 -59 -330 -63
-354 -67 -440 -31 -549 43 -128 143 -195 331 -224 78 -11 1690 -9 1691 3 0 15
13 89 29 175 16 84 21 114 31 177 l6 43 -741 0 c-827 0 -799 -2 -827 66 -13
30 -13 47 -3 110 l13 74 767 0 767 0 6 28 c3 15 8 43 10 62 3 19 8 46 10 60
30 157 45 254 40 259 -3 3 -346 6 -762 6 l-757 0 3 48 c3 54 25 122 45 140 43
40 59 50 90 54 20 2 365 5 768 6 l734 2 12 65 c7 36 15 81 18 100 3 19 7 46
10 60 4 21 24 139 27 159 0 3 0 11 -1 16 -1 7 -269 10 -782 10 -429 0 -781 -1
-782 -1z"/>
<path d="M16583 14612 c-7 -7 -13 -19 -14 -25 -2 -26 -48 -294 -65 -379 l-6
-28 386 0 386 0 -6 -32 c-3 -18 -10 -56 -15 -84 -5 -28 -12 -61 -14 -75 -5
-28 -22 -131 -30 -174 -2 -16 -7 -41 -10 -55 -10 -50 -16 -86 -19 -110 -2 -14
-13 -79 -25 -145 -11 -66 -23 -133 -26 -150 -3 -16 -12 -66 -20 -110 -8 -44
-24 -134 -35 -200 -11 -66 -23 -128 -26 -137 -5 -16 16 -17 275 -17 l279 1 11
61 c6 34 13 71 15 82 2 11 7 43 11 70 5 28 9 52 10 55 1 3 5 25 9 50 5 25 10
54 12 65 2 10 6 37 10 60 3 22 9 58 14 80 5 22 11 58 14 80 4 23 8 52 11 65 3
14 14 77 25 140 12 63 23 126 25 140 3 14 17 96 32 183 l27 157 388 0 388 0 1
28 c0 15 2 34 4 42 2 8 6 27 9 43 6 27 7 35 26 137 5 30 12 69 15 85 14 80 15
105 3 106 -7 0 -474 1 -1037 2 -838 2 -1027 0 -1038 -11z"/>
<path d="M18877 14622 c-18 -4 -20 -11 -52 -212 -3 -19 -8 -42 -10 -50 -2 -8
-7 -33 -10 -55 -2 -22 -12 -76 -20 -119 -8 -44 -18 -93 -20 -110 -3 -17 -14
-80 -25 -141 -11 -60 -22 -123 -24 -140 -5 -28 -29 -164 -41 -230 -14 -76 -35
-193 -40 -225 -3 -19 -15 -84 -25 -145 -11 -60 -22 -123 -25 -140 -2 -16 -7
-40 -9 -52 -3 -11 -8 -41 -11 -66 l-7 -45 278 1 c269 2 277 3 280 22 2 11 5
34 8 50 3 17 8 48 11 70 4 22 8 47 10 55 4 13 25 127 41 225 2 17 7 37 9 45 2
8 6 33 10 54 4 32 33 195 51 296 2 14 7 41 9 60 5 29 10 52 20 90 0 3 5 30 9
60 4 30 10 64 12 75 2 11 6 40 10 65 3 25 8 48 10 51 2 3 8 37 14 75 19 115
21 124 49 279 16 83 26 152 25 154 -4 5 -513 7 -537 3z"/>
<path d="M11078 12485 c-2 -1 -149 -5 -328 -8 -179 -4 -341 -8 -360 -11 -19
-2 -62 -7 -95 -11 -264 -28 -419 -155 -503 -415 -24 -72 -67 -245 -76 -302 -3
-21 -10 -57 -15 -80 -9 -42 -40 -224 -62 -363 -6 -38 -12 -133 -15 -210 -5
-190 16 -268 91 -333 63 -56 152 -90 275 -106 207 -28 1333 -28 1528 -1 18 2
52 7 75 10 59 8 158 41 204 67 172 98 245 243 327 651 80 395 112 710 85 827
-30 135 -121 212 -285 244 -124 24 -150 25 -489 31 -176 3 -328 8 -337 9 -9 2
-18 3 -20 1z m127 -475 c382 -4 429 -27 428 -214 -1 -112 -46 -384 -81 -491
-45 -138 -119 -188 -298 -203 -107 -8 -730 -9 -829 0 -147 13 -209 53 -222
142 -4 28 -7 53 -6 56 0 3 3 31 7 63 8 81 54 331 67 364 6 15 9 28 8 28 -8 0
28 88 53 130 58 99 104 114 383 121 110 3 203 6 207 7 5 1 27 1 50 0 24 -1
129 -2 233 -3z"/>
<path d="M22797 12484 c-1 -1 -126 -4 -277 -8 -330 -8 -380 -12 -529 -42 -275
-57 -396 -181 -480 -497 -20 -73 -22 -80 -40 -177 -6 -30 -13 -66 -16 -80 -3
-14 -8 -38 -10 -55 -3 -16 -12 -66 -20 -110 -8 -44 -17 -97 -20 -117 -8 -59
-16 -111 -20 -138 -3 -14 -8 -56 -11 -95 -22 -226 0 -323 88 -400 96 -83 210
-115 463 -132 218 -15 1091 -7 1195 11 14 3 60 10 104 16 167 25 260 65 352
153 63 59 104 133 137 247 21 72 65 270 81 363 3 15 7 35 10 45 3 9 7 33 10
52 3 19 8 45 10 56 14 70 15 94 3 95 -17 0 -1219 0 -1234 0 -6 -1 -14 -20 -18
-43 -9 -50 -13 -73 -20 -108 -3 -14 -10 -54 -16 -90 -6 -36 -13 -78 -16 -93
l-4 -28 208 1 c114 1 277 1 361 1 l154 -1 -6 -27 c-4 -16 -9 -38 -11 -50 -3
-13 -7 -33 -10 -45 -17 -79 -88 -112 -265 -125 -74 -5 -597 -4 -741 1 -177 7
-233 29 -257 102 -10 30 -8 153 3 204 3 14 7 45 10 70 3 25 10 68 15 95 5 28
12 65 15 83 50 301 110 376 320 399 87 10 712 10 818 0 170 -15 206 -43 187
-145 -7 -38 -5 -42 14 -43 60 -3 528 -1 531 2 9 10 28 183 30 269 2 142 -49
233 -161 289 -52 27 -182 59 -265 67 -35 3 -75 7 -89 10 -14 2 -131 7 -260 10
-129 3 -254 6 -278 8 -23 1 -43 1 -45 0z"/>
<path d="M6251 12450 c-8 -6 -34 -150 -28 -157 2 -2 49 -5 104 -7 153 -6 214
-40 253 -143 25 -66 21 -232 -8 -388 -12 -60 -23 -123 -26 -140 -2 -16 -14
-84 -26 -150 -12 -66 -23 -131 -25 -145 -2 -14 -13 -77 -24 -140 -12 -63 -23
-126 -26 -140 -16 -96 -81 -459 -101 -575 -14 -77 -27 -155 -30 -174 -3 -18
-7 -43 -10 -55 -2 -11 -15 -86 -29 -166 -14 -80 -28 -154 -31 -165 -4 -11 -4
-18 -1 -15 5 5 79 186 297 725 55 138 105 259 110 270 15 34 210 516 210 521
0 2 9 23 19 47 19 40 139 334 241 590 26 65 50 120 53 123 2 3 22 -48 42 -113
20 -65 45 -143 55 -173 10 -30 48 -149 85 -265 36 -115 86 -271 110 -345 24
-74 73 -228 109 -342 l66 -206 220 0 220 1 62 91 c35 50 102 150 151 221 48
72 135 200 193 285 58 85 160 236 227 335 68 99 172 252 231 340 122 180 126
185 121 159 -3 -16 -18 -102 -41 -229 -1 -11 -10 -63 -19 -115 -8 -52 -22
-129 -30 -170 -8 -41 -16 -86 -19 -100 -12 -80 -19 -117 -23 -135 -2 -11 -8
-42 -13 -70 -5 -27 -12 -63 -15 -80 -49 -250 70 -500 315 -664 71 -47 80 -49
81 -21 1 11 2 23 3 28 3 12 18 106 21 128 2 11 8 45 14 75 6 30 13 70 16 89 3
19 12 71 21 115 8 45 16 95 18 113 3 17 9 55 15 84 6 29 13 69 17 88 13 79 45
262 59 340 11 59 26 147 29 165 10 62 19 112 22 130 2 11 13 73 25 137 11 64
22 127 24 140 6 31 23 126 29 163 3 17 7 44 10 60 l5 30 -473 0 c-261 0 -476
-2 -479 -5 -6 -7 -117 -178 -137 -211 -8 -14 -44 -72 -80 -128 -91 -141 -114
-179 -150 -236 -17 -27 -53 -84 -80 -125 -26 -41 -95 -148 -151 -238 -57 -90
-106 -165 -110 -167 -3 -2 -21 51 -39 118 -18 67 -39 142 -46 167 -8 25 -32
110 -54 190 -22 80 -44 159 -50 175 -8 26 -25 87 -71 255 -5 19 -11 40 -13 45
-1 6 -8 30 -15 55 -7 25 -16 59 -22 75 l-9 30 -696 0 c-383 0 -699 -2 -703 -5z"/>
<path d="M12343 12452 c-13 -2 -23 -7 -23 -11 0 -11 128 -432 133 -437 2 -2
376 -4 833 -5 456 -1 861 -5 901 -9 198 -23 221 -94 158 -485 -3 -22 -8 -48
-11 -57 -3 -9 -6 -25 -8 -35 -13 -64 -43 -144 -68 -181 -43 -62 -91 -89 -201
-109 -46 -9 -1217 -16 -1217 -8 0 8 47 285 55 325 9 43 24 133 31 175 3 22 10
58 15 80 18 82 41 75 -260 75 -304 0 -274 9 -286 -85 -9 -60 -12 -83 -19 -111
-2 -12 -7 -39 -10 -60 -4 -22 -11 -61 -16 -89 -5 -27 -12 -63 -15 -80 -10 -60
-35 -201 -39 -220 -2 -11 -7 -40 -11 -65 -14 -92 -16 -103 -19 -109 -2 -3 -7
-26 -10 -52 -3 -25 -14 -91 -24 -148 l-19 -102 956 4 c526 2 981 7 1011 11
244 30 344 69 455 181 95 95 168 256 211 465 3 14 14 66 24 115 55 257 75 412
75 575 0 140 -15 202 -67 277 -77 113 -250 168 -543 173 -210 3 -1969 5 -1992
2z"/>
<path d="M15081 12450 c-8 -5 115 -429 127 -442 4 -4 403 -9 887 -11 668 -3
890 -7 922 -16 119 -37 145 -166 88 -451 -3 -14 -8 -38 -11 -55 -32 -185 -84
-283 -171 -321 -86 -36 -181 -42 -764 -43 l-567 -2 9 48 c5 26 14 71 19 98 5
28 12 66 14 85 3 19 8 46 10 60 20 104 58 320 61 343 l4 27 -272 -2 -272 -3
-11 -65 c-6 -36 -18 -108 -27 -160 -9 -52 -19 -113 -23 -135 -3 -22 -9 -56
-14 -75 -5 -19 -11 -51 -14 -72 -3 -20 -19 -112 -35 -205 -17 -92 -33 -184
-36 -203 -14 -88 -27 -157 -32 -178 l-6 -24 974 5 c536 2 988 7 1004 10 17 3
62 11 102 17 210 30 384 154 457 325 10 22 24 54 31 71 22 52 72 243 95 364
26 134 25 132 35 190 4 25 9 54 11 65 2 11 7 40 10 65 3 25 8 56 10 70 3 14 7
70 9 125 13 337 -127 469 -518 491 -127 7 -2096 11 -2106 4z"/>
<path d="M18039 12435 c-4 -11 -15 -65 -24 -120 -9 -55 -27 -161 -41 -235 -13
-74 -26 -148 -29 -165 -3 -16 -19 -106 -35 -200 -17 -93 -32 -181 -35 -195 -2
-14 -18 -104 -35 -200 -16 -96 -35 -200 -40 -230 -6 -30 -12 -66 -14 -80 -2
-14 -13 -77 -25 -140 -11 -63 -23 -131 -26 -150 -3 -19 -8 -43 -11 -52 -5 -17
13 -18 285 -18 l291 0 5 23 c3 12 14 76 26 142 65 381 67 392 74 425 3 14 7
39 10 55 5 29 48 277 60 340 3 17 8 46 10 65 3 19 10 55 15 80 5 25 12 61 15
80 2 19 7 46 10 60 2 14 23 131 45 260 22 129 43 243 46 253 7 21 33 19 -295
21 -266 1 -274 1 -282 -19z"/>
<path d="M18866 12430 c-7 -33 -64 -355 -71 -400 -3 -19 -19 -109 -35 -200
-16 -91 -32 -183 -35 -205 -4 -22 -10 -56 -15 -75 -5 -19 -13 -66 -19 -105 -6
-38 -13 -81 -15 -95 -3 -14 -10 -54 -16 -90 -7 -36 -14 -74 -16 -85 -2 -11
-10 -60 -19 -110 -9 -49 -21 -115 -26 -145 -5 -30 -16 -91 -23 -135 -8 -44
-17 -92 -21 -107 l-7 -28 284 0 c221 0 285 3 285 13 0 6 14 93 31 192 17 99
33 194 35 210 3 17 21 129 42 250 46 278 44 265 49 295 3 14 8 43 11 65 3 22
12 76 20 120 8 44 16 96 19 115 9 73 17 90 40 86 11 -3 24 -5 28 -5 4 -1 25
-38 49 -83 23 -46 52 -101 64 -123 21 -38 50 -92 175 -330 56 -106 101 -191
196 -370 104 -197 163 -309 196 -372 l33 -63 477 0 478 0 5 23 c2 12 9 49 15
82 5 33 12 71 15 85 3 14 14 77 25 140 11 63 23 129 26 145 11 61 85 481 90
515 3 19 7 42 9 50 3 8 7 33 10 55 4 22 12 72 20 110 8 39 16 90 20 115 3 25
8 52 10 60 2 8 6 32 9 53 3 20 17 97 30 170 14 72 26 148 28 167 l3 35 -273 0
c-173 0 -276 -3 -281 -10 -5 -5 -12 -32 -15 -58 -4 -27 -9 -57 -11 -67 -2 -9
-6 -35 -9 -56 -4 -22 -11 -64 -16 -94 -5 -30 -12 -72 -16 -94 -3 -21 -8 -48
-10 -60 -2 -11 -7 -39 -9 -61 -3 -22 -10 -62 -15 -90 -5 -27 -12 -66 -14 -85
-3 -19 -8 -46 -10 -60 -3 -14 -21 -122 -40 -240 -20 -118 -38 -224 -40 -235
-2 -11 -7 -42 -10 -69 -9 -62 -10 -63 -41 -62 -28 1 -16 -19 -197 326 -39 74
-91 173 -116 220 -24 47 -68 130 -97 185 -29 55 -73 138 -98 185 -24 47 -77
148 -118 225 -40 77 -81 153 -91 170 l-18 30 -480 0 -479 0 -5 -25z"/>
</g>
</svg>
