<?xml version="1.0" encoding="UTF-8"?> <!-- Generator: Adobe Illustrator 23.0.3, SVG Export Plug-In . SVG Version: 6.00 Build 0) --> <svg xmlns="http://www.w3.org/2000/svg" xmlns:xlink="http://www.w3.org/1999/xlink" id="Layer_1" x="0px" y="0px" viewBox="0 0 1296 436.6" style="enable-background:new 0 0 1296 436.6;" xml:space="preserve"> <style type="text/css"> .st0{fill-rule:evenodd;clip-rule:evenodd;fill:#D61726;} .st1{fill-rule:evenodd;clip-rule:evenodd;fill:#C8C8C8;} .st2{fill:#C8C8C8;} </style> <g> <path class="st0" d="M30.9,199.4h81.5c0,0,30.9-0.6,41.7,10.7c10.7,11.3,7.7,27.1,7.7,27.1s-2.4,17.3-4.5,30.6 c-1.5,8.6-3,15.5-3,15.5s-4.2,18.7-19.6,27.1c-15.5,8.3-37.5,7.4-37.5,7.4l-56.5-0.3l-11.6,69.6H0L30.9,199.4L30.9,199.4z M55.3,227.7l-10.4,62.5h47.3c0,0,10.7,0.3,20.8-1.8c6-1.2,11.3-5.1,12.5-11.9c3.6-17.9,6-33,6-33.3s1.5-7.4-2.1-11.9 c-3.6-4.5-31.5-3.9-31.5-3.9L55.3,227.7L55.3,227.7z"></path> <polygon class="st0" points="272.5,251.8 379.6,251.8 375.5,275.9 286.2,361.3 361.2,361.3 356.7,387.4 246.3,387.4 251.1,360.4 336.8,278.3 268.4,278.3 "></polygon> <path class="st0" d="M169,251.8h27.7l-1.2,6.8c0,0,9.2-10.1,36-8.3c22.3,1.5,29.5,12.8,30.3,27.7c0.9,12.2-2.4,27.7-2.4,27.7h-28.6 l2.4-14.9c0,0,1.5-8.9-3-12.2c-4.5-3.3-18.7-4.5-28.3,1.5c-9.5,6-12.5,19-12.5,19l-8.9,50.6l-6,38.1h-28.6l14.6-85.7L169,251.8 L169,251.8z"></path> <polygon class="st0" points="524.5,199.4 552.5,199.4 521,387.4 493,387.4 "></polygon> <polygon class="st0" points="674.2,251.8 701,251.8 710.5,347.3 751.8,251.5 784.9,251.8 794.7,347.6 836,251.8 864,251.8 804.8,387.4 771.5,387.4 762,292.5 720.3,387.4 687.6,387.4 "></polygon> <path class="st0" d="M490.9,328.2l3.9-22.6c4.5-25.6,1.2-45.2-22.3-52.7c-7.7-2.7-21.4-3-33-3c-11,0-16.4,0.6-20.5,1.5 c0,0-19.9,3-31.2,16.7c-11.3,14-14.6,44.3-14.6,44.3s-6.5,33.6-4.8,44.9c2.1,11.3,5.4,21.7,18.1,26.5c12.8,4.8,23.5,4.8,23.5,4.8 s22.6,1.8,39.9-2.4c17-4.2,26.2-16.1,26.2-16.1s3.9-5.1,6.8-11.3c3-6.2,3.9-10.4,3.9-11l1.8-7.1h-29.2c0,0-1.5,19-17.3,20.8 c-15.8,1.8-24.1,1.2-27.1,0.9c-3,0-20.2,0.6-18.4-14c0,0-0.3,2.4,0-0.3c0.9-16.1,2.7-20.2,2.7-20.2L490.9,328.2L490.9,328.2z M404,302.4h62.5c0,0,2.4-11.3,0-18.7c-0.9-3-4.5-5.4-8.3-6c-11.3-2.4-25-1.5-30.3-0.9c-5.4,0.6-10.7,1.2-15.2,4.5s-6.5,11-6.5,11 L404,302.4L404,302.4z"></path> <path class="st0" d="M663.2,328.2l3.9-22.6c4.5-25.6,1.2-45.2-22.3-52.7c-7.7-2.7-21.4-3-33-3c-11,0-16.4,0.6-20.5,1.5 c0,0-19.9,3-31.2,16.7c-11.3,14-14.6,44.3-14.6,44.3s-6.5,33.6-4.8,44.9c2.1,11.3,5.4,21.7,18.1,26.5c12.8,4.8,23.5,4.8,23.5,4.8 s22.6,1.8,39.9-2.4c17-4.2,26.2-16.1,26.2-16.1s3.9-5.1,6.8-11.3c3-6.2,3.9-10.4,3.9-11l1.8-7.1h-29.2c0,0-1.5,19-17.3,20.8 c-15.8,1.8-24.1,1.2-27.1,0.9c-3,0-20.2,0.6-18.4-14c0,0-0.3,2.4,0-0.3c0.9-16.1,2.7-20.2,2.7-20.2L663.2,328.2L663.2,328.2z M576,302.4h62.5c0,0,2.4-11.3,0-18.7c-0.9-3-4.5-5.4-8.3-6c-11.3-2.4-25-1.5-30.3-0.9c-5.4,0.6-10.7,1.2-15.2,4.5s-6.5,11-6.5,11 L576,302.4L576,302.4z"></path> <path class="st0" d="M896.1,251.8l17.9,99.1l50.9-99.4l28.6,0.3l-73.2,141.9c0,0-13.4,25.6-21.4,32.1c-8.3,6.5-13.1,9.5-19.9,10.1 c-6.8,0.6-9.5,1.2-15.8,0l-6.8-1.2l4.2-25.3c0,0,11.3,2.1,18.1-0.6c6.8-2.7,12.2-14.3,12.2-14.3l3.3-5.7l-26.5-137.5L896.1,251.8 L896.1,251.8z"></path> <path class="st1" d="M1003.8,265.2h29.5l1.8-11.3c0,0,3.3-20.5,10.1-24.7c2.4-1.2,6-2.4,10.1-3.3c7.7-1.2,17.6-1.5,25.6-1.2 c12.2,0.3,17,0.6,29.5,2.1c12.5,1.5,9.2,13.4,9.2,13.4l-2.4,17.9c0,0-1.2,8-3.9,13.1c-2.7,4.5-9.5,7.4-13.4,8.6 c-9.8,3.3-42.8,11.6-42.8,11.6l-26.2,7.4c0,0-16.1,4.8-25,14.6c-8.9,9.8-12.5,21.1-13.7,27.1s-8,46.4-8,46.4h141l4.8-28.3h-111.6 l2.1-11.6c0,0,1.2-11.9,6-15.8c1.5-1.2,2.4-3,11.3-6c5.4-1.8,23.5-6.8,23.5-6.8l42-11.6c0,0,22.9-6,32.1-18.4 c8.9-12.5,12.5-36.6,12.5-36.6s2.4-23.2,0.6-30.6c-1.8-7.4-8.6-16.1-17.3-19.9c-8.3-3.9-17.3-6-42.5-5.7 c-25.3,0.3-37.8,1.5-50.9,6.2c-12.8,4.8-20.2,13.4-25,25.6C1006.8,240.5,1003.8,265.2,1003.8,265.2L1003.8,265.2z"></path> <g> <path class="st2" d="M1269.2,317.5l19.6-118.4h-35.1L1144.9,316l-5.1,29.8h95.2l-6.8,41.7h29.2l6.8-41.7h27.1l4.8-28.3H1269.2z M1240.1,317.8h-61.6l75-80L1240.1,317.8z"></path> </g> <path class="st1" d="M217.5,214.9h89.9c0,0,20.2-16.4,34.5-26.8s40.2-26.8,40.2-26.8l-50.6-23.8c0,0-42.8,26.5-61,39 C252.3,188.1,217.5,214.9,217.5,214.9L217.5,214.9z"></path> <path class="st1" d="M410.3,144.4l-41.7-28c0,0,37.8-21.4,87.8-41.4s76.8-28.3,76.8-28.3l8.3,39.6c0,0-48.2,16.1-75.9,29.2 C437.4,127.7,410.3,144.4,410.3,144.4L410.3,144.4z"></path> <path class="st1" d="M572.4,77.7L565.3,37c0,0,51.5-13.7,98.5-22.3C710.8,6,773.3,1.9,773.3,1.9l-20.5,62.8c0,0-55-7.4-106.5-0.6 C606,68.8,572.4,77.7,572.4,77.7L572.4,77.7z"></path> <path class="st1" d="M785.2,70L820,0.1c0,0,76.2-1.5,141.6,8.6c65.8,10.1,125.6,25.6,124.4,26.5l-166.3,87.2c0,0-39-24.7-87.2-39.9 C805.1,74.5,785.2,70,785.2,70L785.2,70z"></path> <path class="st1" d="M949.4,141.1l36.6,27.7h300.5c0.3,0-21.4-75.9-128.8-108L949.4,141.1L949.4,141.1z"></path> </g> </svg> 