<?xml version="1.0" encoding="UTF-8"?> <!-- Generator: Adobe Illustrator 23.0.3, SVG Export Plug-In . SVG Version: 6.00 Build 0) --> <svg xmlns="http://www.w3.org/2000/svg" xmlns:xlink="http://www.w3.org/1999/xlink" id="Layer_1" x="0px" y="0px" viewBox="0 0 874.204651 252.343994" style="enable-background:new 0 0 874.204651 252.343994;" xml:space="preserve"> <style type="text/css"> .st0{fill:#1AAD19;} .st1{fill:#514F4F;} </style> <g> <path class="st0" d="M104.019043,159.621948c-1.291016,0.651001-2.744019,1.028015-4.289001,1.028015 c-3.57605,0-6.683044-1.96698-8.317017-4.877991l-0.625-1.367981L64.754028,97.273987 c-0.281006-0.621033-0.455017-1.324036-0.455017-2.007996c0-2.632019,2.134033-4.765991,4.767029-4.765991 c1.06897,0,2.055969,0.35498,2.850952,0.945984l30.723022,21.874023c2.244019,1.467957,4.926025,2.329956,7.809998,2.329956 c1.719971,0,3.361023-0.32196,4.888977-0.877014l144.478943-64.302979C233.919983,19.94696,191.269043,0,143.002991,0 C64.022034,0,0,53.354004,0,119.17395c0,35.907043,19.262024,68.231018,49.411011,90.078003 c2.419006,1.727051,4.002014,4.564026,4.002014,7.766052c0,1.057983-0.226013,2.026001-0.502991,3.03595 c-2.40802,8.981995-6.261047,23.367004-6.442017,24.040039c-0.299988,1.127991-0.768982,2.303955-0.768982,3.484009 c0,2.632996,2.132996,4.765991,4.769958,4.765991c1.032043,0,1.879028-0.384033,2.751038-0.887024l31.307007-18.075012 c2.355957-1.357971,4.847961-2.200989,7.595947-2.200989c1.460999,0,2.873047,0.226013,4.20105,0.632019 c14.605957,4.200989,30.362976,6.534973,46.678955,6.534973c78.978027,0,143.008057-53.357971,143.008057-119.174011 c0-19.935974-5.907104-38.709961-16.290039-55.225952l-164.658997,95.070984L104.019043,159.621948z"></path> <path class="st1" d="M405.450256,204.596863l-1.096069,3.893005c-0.916992,3.248047-1.727051,6.117004-2.427002,8.95105 c-0.891968-4.179016-2.126953-8.851013-3.236938-12.972046l-7.358032-27.747009l-0.129028-0.492981h-4.823975l-8.22998,28.421997 c-1.473999,4.807007-2.780029,9.145996-3.697021,12.942993c-0.703979-3.000977-1.552979-6.348999-2.442017-9.863953 l-7.982056-31.008057l-0.132935-0.492981h-5.567017l13.37207,50.637024l0.128906,0.495972h4.746094l8.599976-29.01001 c1.5-4.945984,2.630981-8.832947,3.447998-12.22998c0.731934,3.585999,1.749023,7.526001,3.022949,12.194031l7.43396,28.552979 l0.128052,0.492981h4.817993l15.067017-50.279968l0.26001-0.853027h-5.594971L405.450256,204.596863z"></path> <path class="st1" d="M436.89093,189.589783c-10.006104,0-16.730103,8.015015-16.730103,19.946045 c0,11.097961,6.958984,18.557007,17.315063,18.557007c6.51001,0,10.207031-1.670044,11.495972-2.384033l0.791992-0.442993 l-2.344971-4.060974l-0.552979,0.253967c-1.831055,0.848999-4.325073,1.716003-8.950073,1.716003 c-7.583984,0-12.080933-4.989014-12.387939-13.700012h25.645996l0.167969-0.755981 c0.162964-0.760986,0.162964-1.317017,0.162964-2.323975c0-1.367004-0.188965-6.149048-2.661987-10.300049 C446.279846,191.777832,442.257874,189.589783,436.89093,189.589783 M425.817932,204.77478 c1.355957-7.615967,6.355957-10.34198,10.633911-10.34198c2.719971,0,4.900024,0.817017,6.491089,2.437012 c2.348999,2.383972,2.880981,5.84198,2.973999,7.904968H425.817932z"></path> <path class="st1" d="M492.80719,221.137085h-0.004028c-2.765991,1.274048-6.644043,2.038025-10.378052,2.038025 c-12.426025,0-19.844971-7.85498-19.844971-21.013c0-13.661011,7.636963-21.81897,20.43103-21.81897 c3.536987,0,6.901001,0.666992,9.474976,1.876953l0.552979,0.26001l2.498047-4.335999l-0.746094-0.409973 c-0.987915-0.54303-4.756958-2.309021-11.85498-2.309021c-15.51001,0-25.930908,10.713013-25.930908,26.661987 c0,19.192993,13.064941,26.006042,24.25293,26.006042c6.302979,0,11.217041-1.335999,13.718018-2.584045l0.814941-0.41095 l-2.43396-4.215027L492.80719,221.137085z"></path> <path class="st1" d="M518.074524,189.589233c-2.737061,0-5.360107,0.753052-7.562012,2.170044 c-1.268066,0.727966-2.447998,1.730957-3.454102,2.929993v-19.263977h-5.424927v51.935974h5.424927v-22.351013 c0-1.34198,0.060059-2.205994,0.384033-3.187012c1.520996-4.264954,5.504028-7.244995,9.682983-7.244995 c7.548096,0,8.675049,6.945007,8.675049,11.088013v21.695007h5.427979v-22.057983 C531.228455,190.346252,520.26947,189.589233,518.074524,189.589233"></path> <path class="st1" d="M579.677551,182.520386h-5.432007v8.212036h-5.913086v4.432007h5.913086v21.162964 c0,4.21405,0.78894,7.162048,2.394897,8.986023c1.456055,1.862976,3.790039,2.851013,6.744995,2.851013 c2.052002,0,3.829102-0.320984,5.278076-0.955994l0.875-0.382019l-2.281006-3.947021l-0.471069,0.103027 c-0.820923,0.174988-1.816895,0.265015-2.958984,0.265015c-2.908936,0-4.149902-1.874023-4.149902-6.264038v-21.81897h10.00293 v-4.432007h-10.00293V182.520386z"></path> <path class="st1" d="M625.146179,175.865906c-3.600098,0-7.220093,0.325012-10.756104,0.960022l-0.792969,0.143005v50.393982 h5.429077v-20.776978c1.461914,0.270996,3.082886,0.33197,5.027954,0.33197c6.509033,0,11.894043-2.059998,15.166992-5.789001 c2.473022-2.714966,3.680054-6.151978,3.680054-10.505981c0-4.251038-1.414063-7.819031-4.090088-10.324036 C635.842102,177.40094,631.117126,175.865906,625.146179,175.865906 M619.026184,181.129883 c1.062988-0.177979,3.057983-0.420959,5.973999-0.420959c7.925903,0,12.471924,3.747009,12.471924,10.281006 c0,7.044983-4.786011,11.084961-13.129028,11.084961c-1.616943,0-3.657959-0.057007-5.316895-0.484985V181.129883z"></path> <path class="st1" d="M702.672424,190.392944l-8.772095,23.321045c-0.703003,1.830994-1.323975,3.654968-1.848022,5.20697 c-0.552979-1.697998-1.166992-3.440002-1.762939-4.998962l-9.20105-22.923035l-0.239014-0.606018h-5.79895l13.525024,33.807007 c0.364014,0.920044,0.371948,1.166992,0.371948,1.177002c0,0.231995-0.188965,0.725037-0.364014,1.160034 c-1.744995,4.140015-4.026001,6.916016-5.625,8.515015c-2.197998,2.115967-4.574951,3.204956-5.79895,3.661987l-0.984985,0.359985 l2.569946,4.440002l0.520996-0.200012c0.924072-0.349976,3.36499-1.409973,6.088013-3.705017 c4.668091-4.070984,7.619019-10.259949,12.091064-21.754944l10.677002-26.551025l0.375-0.910034H702.672424z"></path> <path class="st1" d="M564.074402,218.07605v-13.721985c0-9.659973-4.523926-14.763977-13.081909-14.763977 c-3.780029,0-7.830078,1.177979-10.817017,3.144958l-0.561035,0.338013l2.355957,4.075989l0.592041-0.395996 c2.195068-1.494995,5.061035-2.322998,8.06604-2.322998h0.124023c2.412964,0,4.289917,0.648987,5.578003,1.927002 c1.557007,1.541016,2.312988,3.960999,2.316895,7.390015c-8.383911,0.028992-14.435913,1.823975-17.993896,5.349976 c-2.256104,2.234009-3.398071,5.082031-3.398071,8.468018c0,5.104004,3.523071,10.599976,11.25708,10.599976 c5.391968,0,8.842896-2.608948,10.651978-4.517944l0.375,3.714966h5.209961l-0.178955-1.114014 C564.135437,223.547058,564.074402,220.72406,564.074402,218.07605 M544.793518,212.027039 c2.362915-2.290955,6.797974-3.450989,13.182983-3.450989l0.659912,0.004028l0.010986,6.576965 c0,0.460022-0.052979,1.14502-0.313965,1.805054c-1.049927,3.076965-4.083008,6.359985-9.457031,6.359985 c-2.790894,0-6.04895-1.663025-6.04895-6.338013C542.827454,214.96405,543.487488,213.297058,544.793518,212.027039"></path> <path class="st1" d="M671.017151,218.075745v-13.720947c0-9.661011-4.522095-14.765015-13.080078-14.765015 c-3.564941,0-7.451904,1.08197-10.395996,2.890991l-0.546021,0.343018l2.331055,4.032959l0.582031-0.363953 c2.137939-1.328003,4.859985-2.063049,7.664917-2.063049h0.129028c2.405029,0,4.281982,0.649048,5.573975,1.927002 c1.553101,1.541992,2.309082,3.960999,2.31311,7.390991c-8.376099,0.028015-14.429077,1.827026-17.991089,5.348999 c-2.255005,2.234009-3.396973,5.082031-3.396973,8.469055c0,5.102966,3.522949,10.598999,11.251953,10.598999 c5.395996,0,8.850098-2.605042,10.657104-4.518005l0.370972,3.714966h5.216919l-0.178955-1.112976 C671.077087,223.536743,671.017151,220.720764,671.017151,218.075745 M665.589172,215.156738 c0,0.46405-0.054077,1.153015-0.311035,1.80603c-1.052002,3.072998-4.08606,6.359985-9.457031,6.359985 c-2.791016,0-6.050049-1.662964-6.050049-6.338989c0-2.02002,0.661011-3.685974,1.968018-4.95697 c2.361084-2.291016,6.798096-3.45105,13.177979-3.45105l0.668091,0.004028L665.589172,215.156738z"></path> <rect x="533.579529" y="66.660889" class="st1" width="72.124023" height="6.469971"></rect> <rect x="533.579529" y="86.862854" class="st1" width="72.124023" height="6.971985"></rect> <path class="st1" d="M535.407532,146.614868h68.472046V107.57489h-68.472046V146.614868z M542.379578,114.039856h54.525024 v26.099976h-54.525024V114.039856z"></path> <path class="st1" d="M513.780334,150.668152V60.850159c4.090942-8.811951,7.708984-18.307983,10.664917-27.927979 l-6.449951-3.731018c-6.365967,22.44104-15.700073,42.833008-27.409058,59.897034l3.846069,6.610962 c4.057983-6.000977,8.343018-13.059998,12.375977-20.458008v75.427002H513.780334z"></path> <path class="st1" d="M778.769958,150.668152V60.850159c4.090942-8.811951,7.708984-18.307983,10.664917-27.927979 l-6.449951-3.731018c-6.365967,22.44104-15.696045,42.833008-27.409058,59.897034l3.846069,6.610962 c4.057983-6.000977,8.343018-13.059998,12.376953-20.458008v75.427002H778.769958z"></path> <path class="st1" d="M613.282043,45.950073h-42.37207l4.488037-2.58197l0.161987-0.096008l-0.075073-0.164978 c-0.513916-1.202026-1.86499-4.03302-3.29895-7.030029c-1.329956-2.792969-2.702026-5.677979-3.360962-7.157959l-0.087036-0.207031 l-6.428955,3.708984l0.094971,0.174011c2.301025,4.332031,4.274048,8.294006,6.047974,12.135986 c0.248047,0.518005,0.406006,0.929016,0.459961,1.218994h-42.405884v6.976013h86.776001V45.950073z"></path> <polygon class="st1" points="426.32428,40.654846 419.858215,40.654846 419.858215,63.388855 407.639221,63.388855 407.639221,31.059875 401.16925,31.059875 401.16925,63.388855 388.445251,63.388855 388.445251,40.654846 381.979187,40.654846 381.979187,69.858887 426.32428,69.858887 "></polygon> <rect x="383.99762" y="82.576843" class="st1" width="39.296997" height="6.469971"></rect> <path class="st1" d="M392.485657,114.098633v-5.856995h19.795898v14.433044c-0.244995,5.036011-0.494019,6.56897-2.225952,8.97699 l-0.078979,0.107971l3.974976,6.881042l0.186035-0.150024c3.481934-2.789001,9.421997-7.882996,17.656982-15.132019l0.125-0.104004 l-3.120972-5.408997l-0.125-0.211975l-9.921997,8.51001v-24.372009h-33.238037v9.81897 c0.94104,13.438049-2.416016,23.054016-9.972046,28.567017l-0.14502,0.106995l3.598022,6.242004l0.119995,0.208008 l0.186035-0.153992C388.71759,138.809692,393.156555,127.880676,392.485657,114.098633"></path> <path class="st1" d="M350.024475,61.623657l3.903931,6.76001c10.039063-10.046997,18.610962-22.117004,24.968994-35.164001 l-6.031006-3.48999C366.632385,42.449707,358.807434,53.383667,350.024475,61.623657"></path> <path class="st1" d="M348.257507,102.259033l3.584961,6.209045l0.140991,0.252991l0.187012-0.220032 c3.820923-4.459961,7.559937-9.164001,11.115967-13.988953v56.153992h6.469971V83.848083 c2.926025-5.205994,5.75708-11.020996,8.410034-17.288025l0.06604-0.161987l-6.254028-3.606018l-0.087036,0.220032 c-5.980957,14.953979-13.906006,28.121948-23.53894,39.134949L348.257507,102.259033z"></path> <path class="st1" d="M449.847107,110.031067c-4.256958-10.987976-7.418945-25.926025-9.403931-44.411987 c0.645996-1.934998,1.466919-3.911987,2.444946-5.873047h17.333984 C458.887146,80.831055,455.393127,97.746033,449.847107,110.031067 M473.771179,59.746033v-6.469971h-28.71106h0.004028 c2.486938-7.51001,5.343018-16.247986,6.303955-23.732971l-6.751953-0.009033 c-4.197998,19.684021-10.606079,36.765015-18.863037,50.23999l4.087036,7.075012l2.996948-5.992981 c1.127075-1.973022,2.039063-3.639038,2.727051-4.966003c2.022949,17.437012,5.553955,31.467957,10.50293,41.721985 c-4.75,8.215027-12.057007,16.744995-21.7229,25.362l-0.124023,0.107971l3.725952,6.457031l0.133057,0.219971l0.182007-0.17395 c10.237915-9.591003,17.324951-17.989014,21.071899-24.968018c4.269043,7.60498,11.494019,16.815002,19.890991,25.336975 l0.183105,0.186035l3.833008-6.622986l0.078979-0.141052l-0.116089-0.112 c-9.001953-8.596008-16.139893-17.519958-20.109985-25.130005c7.332031-13.399963,11.908081-33.041992,13.598999-58.388H473.771179 z"></path> <path class="st1" d="M835.877747,141.719238c-1.426025,0-2.756104-0.007996-4.037109-0.015991v6.971008 c2.765015,0,4.775024-0.024963,6.093018-0.024963c6.835083,0,10.577026-1.463013,13.499023-4.38501 c2.83606-2.843018,4.195068-7.187012,4.029053-12.903015V66.569275h18.74292v-6.953979h-18.74292v-29.88501h-6.992065v29.88501 h-57.537964v6.953979h57.537964v64.809021C848.469666,138.420288,844.100647,141.719238,835.877747,141.719238"></path> <path class="st1" d="M820.274963,118.650085l6.925903-4.040955c-3.700928-7.548035-8.671021-17.562012-14.812988-29.863037 l-6.312988,3.688049C810.322937,96.736145,815.076843,106.858093,820.274963,118.650085"></path> <path class="st1" d="M706.059509,103.643494c-4.475952,5.106995-10.101929,10.89502-18.197998,16.68103 c-19.733887-14.937012-28.215942-31.296997-31.100952-38.160034h62.686035 C717.891541,86.34552,714.153625,94.409485,706.059509,103.643494 M747.403625,52.886475V45.99353h-54.871094V28.502502h-7.062988 V45.99353h-54.870972v6.892944h54.870972v22.975037h-35.671997l0.003052,4.804016v0.666992 c0.083008,0.222961,0.189941,0.500977,0.322998,0.83197c2.145996,5.387024,11.004028,24.614014,32.051025,41.975037 c-11.325073,7.027954-26.863037,13.829956-49.179077,19.164001l4.075073,7.053955 c21.321899-5.172974,37.833008-13.169983,50.580933-21.958984c12.395996,9.090027,30.046997,17.262024,50.577026,22.069031 l3.427002-6.342041c-19.630981-4.76001-36.525024-11.96698-48.325073-19.878967 c21.494019-16.666992,30.503052-34.984009,33.307007-42.082031c0.665039-1.68396,0.987061-2.744995,1.040039-2.992004 l-5.731934-3.310974h-29.413086V52.886475H747.403625z"></path> </g> </svg> 