<?xml version="1.0" encoding="UTF-8"?> <!-- Generator: Adobe Illustrator 23.0.1, SVG Export Plug-In . SVG Version: 6.00 Build 0) --> <svg xmlns="http://www.w3.org/2000/svg" xmlns:xlink="http://www.w3.org/1999/xlink" id="Layer_1" x="0px" y="0px" viewBox="0 0 505.3 316.1" style="enable-background:new 0 0 505.3 316.1;" xml:space="preserve"> <style type="text/css"> .st0{fill:#E21836;} .st1{fill:#00447C;} .st2{fill:#007B84;} .st3{fill:#FEFEFE;} </style> <g> <path class="st0" d="M99,0h126.1c17.6,0,28.6,14.3,24.4,32l-58.7,252.1c-4.1,17.6-21.8,32-39.4,32H25.3c-17.6,0-28.6-14.4-24.4-32 L59.6,32C63.8,14.3,81.4,0,99,0"></path> <path class="st1" d="M214.7,0h145c17.6,0,9.7,14.3,5.5,32l-58.7,252.1c-4.1,17.6-2.8,32-20.5,32H141c-17.6,0-28.6-14.4-24.4-32 L175.3,32C179.5,14.3,197,0,214.7,0"></path> <path class="st2" d="M353.9,0H480c17.6,0,28.6,14.3,24.4,32l-58.7,252.1c-4.1,17.6-21.8,32-39.4,32H280.2 c-17.6,0-28.6-14.4-24.4-32L314.5,32C318.7,14.3,336.3,0,353.9,0"></path> <path class="st3" d="M132,80.8c-13,0.1-16.8,0-18-0.3c-0.5,2.2-9.2,42.6-9.2,42.6c-1.9,8.2-3.3,14-7.9,17.7 c-2.6,2.2-5.7,3.2-9.3,3.2c-5.8,0-9.1-2.9-9.7-8.3l-0.1-1.9c0,0,1.8-10.9,1.8-11c0,0,9.2-36.8,10.8-41.7c0.1-0.3,0.1-0.4,0.1-0.6 c-17.9,0.2-21,0-21.3-0.3c-0.1,0.4-0.6,2.7-0.6,2.7l-9.4,41.5l-0.8,3.5l-1.6,11.5c0,3.4,0.7,6.2,2,8.6c4.3,7.5,16.5,8.6,23.4,8.6 c8.9,0,17.2-1.9,22.8-5.3c9.8-5.8,12.3-14.8,14.6-22.8l1.1-4.1c0,0,9.5-38.2,11.1-43.2C131.9,81.1,131.9,80.9,132,80.8z M164.2,111.6c-2.3,0-6.4,0.6-10.2,2.4c-1.4,0.7-2.6,1.5-4,2.3l1.2-4.4l-0.7-0.7c-7.9,1.6-9.7,1.8-17.1,2.9l-0.6,0.4 c-0.9,7.1-1.6,12.4-4.8,26.2c-1.2,5.1-2.4,10.3-3.7,15.4l0.3,0.6c7.5-0.4,9.8-0.4,16.3-0.3l0.5-0.6c0.8-4.3,0.9-5.2,2.8-13.9 c0.9-4.1,2.7-13.1,3.6-16.2c1.6-0.8,3.2-1.5,4.8-1.5c3.7,0,3.2,3.2,3.1,4.5c-0.2,2.1-1.5,9.1-2.9,15.1l-0.9,3.9 c-0.6,2.9-1.3,5.6-2,8.5l0.3,0.6c7.4-0.4,9.7-0.4,16-0.3l0.7-0.6c1.1-6.6,1.5-8.4,3.5-18.1l1-4.4c2-8.7,3-13.1,1.5-16.7 C171.5,112.6,167.7,111.6,164.2,111.6z M200.1,120.7c-3.9,0.8-6.4,1.3-8.9,1.6c-2.5,0.4-4.9,0.8-8.7,1.3l-0.3,0.3l-0.3,0.2 c-0.4,2.8-0.7,5.3-1.2,8.2c-0.4,3-1.1,6.4-2.2,11.2c-0.9,3.7-1.3,5-1.8,6.3s-1,2.6-2,6.2l0.2,0.3l0.2,0.3c3.6-0.2,5.9-0.3,8.3-0.3 c2.4-0.1,4.9,0,8.7,0l0.3-0.3l0.4-0.3c0.6-3.3,0.6-4.2,1-5.8c0.3-1.7,0.9-4.1,2.3-10.5c0.7-3,1.4-6,2.1-9.1c0.7-3,1.5-6.1,2.2-9.1 l-0.1-0.4L200.1,120.7z M200.2,108.4c-3.6-2.1-9.9-1.4-14.1,1.5s-4.7,6.9-1.1,9.1c3.5,2.1,9.8,1.4,14-1.5 C203.2,114.5,203.7,110.5,200.2,108.4z M221.8,157.3c7.2,0,14.7-2,20.2-7.9c4.3-4.8,6.3-11.9,6.9-14.9c2.2-9.8,0.5-14.3-1.7-17.1 c-3.3-4.2-9.1-5.6-15.2-5.6c-3.6,0-12.3,0.4-19.1,6.6c-4.9,4.5-7.1,10.6-8.5,16.5c-1.4,6-2.9,16.7,6.9,20.7 C214.6,157,219,157.3,221.8,157.3z M221.3,135.4c1.7-7.4,3.6-13.6,8.7-13.6c3.9,0,4.2,4.6,2.5,12c-0.3,1.6-1.8,7.8-3.7,10.4 c-1.4,1.9-3,3.1-4.7,3.1c-0.5,0-3.7,0-3.7-4.7C220.2,140.3,220.7,138,221.3,135.4z M267.1,156.4l0.6-0.6c0.8-4.3,0.9-5.3,2.7-13.9 c0.9-4.1,2.7-13.1,3.6-16.2c1.6-0.8,3.2-1.5,4.8-1.5c3.6,0,3.2,3.2,3,4.5c-0.1,2.1-1.5,9.1-2.9,15.1l-0.9,3.9 c-0.7,2.9-1.4,5.6-2,8.5l0.3,0.6c7.4-0.4,9.6-0.4,16-0.3l0.8-0.6c1.1-6.6,1.4-8.4,3.5-18.1l1-4.4c2-8.7,3-13.1,1.5-16.7 c-1.6-4-5.5-5-8.9-5c-2.3,0-6.5,0.6-10.2,2.4c-1.3,0.7-2.7,1.5-4,2.3l1.1-4.4l-0.6-0.7c-7.9,1.6-9.8,1.8-17.1,2.9l-0.6,0.4 c-0.9,7.1-1.6,12.4-4.8,26.2c-1.2,5.1-2.4,10.3-3.7,15.4l0.3,0.6C258.4,156.3,260.6,156.3,267.1,156.4z M321.7,156.7 c0.5-2.3,3.2-15.8,3.3-15.8c0,0,2.4-9.9,2.5-10.3c0,0,0.7-1,1.5-1.4h1.1c10.3,0,22,0,31.1-6.7c6.2-4.6,10.5-11.4,12.4-19.7 c0.5-2,0.9-4.4,0.9-6.9c0-3.2-0.6-6.3-2.5-8.8c-4.7-6.5-13.9-6.6-24.7-6.7H342c-13.7,0.2-19.2,0.1-21.5-0.2c-0.2,1-0.6,2.8-0.6,2.8 l-4.9,22.8c0,0-11.8,48.4-12.3,50.7C314.8,156.4,319.7,156.4,321.7,156.7z M330.8,116.2c0,0,5.2-22.7,5.2-22.6l0.2-1.2l0.1-0.9 l2.1,0.2c0,0,10.8,0.9,11,0.9c4.3,1.6,6,5.9,4.8,11.4c-1.1,5.1-4.4,9.3-8.6,11.4c-3.5,1.7-7.7,1.9-12.1,1.9h-2.8L330.8,116.2z M363.4,135.8c-1.4,5.9-3,16.6,6.9,20.5c3.1,1.3,5.9,1.7,8.8,1.6c3-0.2,5.8-1.7,8.4-3.9c-0.2,0.9-0.5,1.8-0.7,2.7l0.4,0.6 c7.1-0.3,9.3-0.3,16.9-0.2l0.7-0.5c1.1-6.6,2.2-13,5.1-25.5c1.4-6,2.8-12,4.3-18l-0.2-0.7c-7.9,1.5-10,1.8-17.6,2.9l-0.6,0.5 c-0.1,0.6-0.2,1.2-0.2,1.8c-1.2-1.9-2.9-3.5-5.5-4.6c-3.4-1.3-11.3,0.4-18.2,6.6C367,123.9,364.7,130,363.4,135.8z M380,136.2 c1.7-7.3,3.6-13.4,8.7-13.4c3.2,0,4.9,2.9,4.5,8c-0.3,1.3-0.6,2.6-0.9,4.1c-0.5,2.2-1.1,4.3-1.6,6.4c-0.5,1.5-1.2,2.8-1.9,3.8 c-1.3,1.8-4.4,3-6.2,3c-0.5,0-3.6,0-3.7-4.6C378.9,141.1,379.4,138.8,380,136.2z M466.8,112.2l-0.6-0.7c-7.8,1.6-9.2,1.8-16.4,2.8 l-0.5,0.5c0,0.1,0,0.2-0.1,0.3V115c-5.4,12.4-5.2,9.7-9.6,19.4c0-0.4,0-0.7,0-1.2l-1.1-21.1l-0.7-0.7c-8.2,1.6-8.4,1.8-16,2.8 l-0.6,0.5c-0.1,0.3-0.1,0.5-0.1,0.8v0.1c0.9,4.8,0.7,3.8,1.7,11.4c0.4,3.7,1,7.5,1.5,11.2c0.7,6.2,1.2,9.2,2.1,18.7 c-5.1,8.4-6.3,11.6-11.3,19v0.1l-3.5,5.5c-0.4,0.6-0.8,1-1.3,1.1c-0.6,0.3-1.3,0.3-2.3,0.3h-1.9l-2.9,9.5l9.8,0.2 c5.8,0,9.4-2.7,11.3-6.3l6.2-10.6h-0.1l0.6-0.7C435.2,166.3,466.8,112.2,466.8,112.2z M363.4,237h-4.2l15.4-50.9h5.1l1.6-5.2 l0.2,5.8c-0.2,3.6,2.6,6.8,10.1,6.3h8.6l3-9.8H400c-1.9,0-2.7-0.5-2.6-1.5l-0.2-5.9h-15.9l0,0c-5.2,0.1-20.5,0.5-23.7,1.3 c-3.8,1-7.7,3.8-7.7,3.8l1.6-5.2h-14.9l-3.1,10.4l-15.6,51.7h-3l-3,9.7h29.7l-1,3.2h14.6l1-3.2h4.1L363.4,237z M351.2,196.4 c-2.4,0.7-6.8,2.7-6.8,2.7l4-13h11.8l-2.9,9.5C357.3,195.6,353.6,195.8,351.2,196.4z M351.4,215c0,0-3.7,0.5-6.2,1 c-2.4,0.7-6.9,3-6.9,3l4.1-13.5h11.9L351.4,215z M344.8,237.1h-11.9l3.4-11.4h11.8L344.8,237.1z M373.4,205.5h17.1l-2.5,8h-17.4 l-2.6,8.7h15.2l-11.5,16.2c-0.8,1.2-1.5,1.6-2.3,1.9c-0.8,0.4-1.9,0.9-3.1,0.9h-4.2l-2.9,9.5h11c5.7,0,9.1-2.6,11.6-6l7.9-10.8 l1.7,11c0.4,2.1,1.8,3.3,2.8,3.7c1.1,0.6,2.2,1.5,3.9,1.6c1.7,0.1,3,0.1,3.8,0.1h5.4l3.3-10.7h-2.1c-1.2,0-3.3-0.2-3.7-0.6 c-0.4-0.5-0.4-1.2-0.6-2.3l-1.7-11h-7l3.1-3.7h17.3l2.7-8.7h-16l2.5-8h16l3-9.8h-47.7L373.4,205.5z M228.7,239.3l4-13.3h16.4l3-9.9 h-16.5l2.5-8.2h16.1l3-9.6H217l-2.9,9.6h9.1l-2.4,8.2h-9.2l-3,10.1h9.1l-5.3,17.6c-0.7,2.3,0.3,3.2,1,4.3c0.7,1.1,1.4,1.8,2.9,2.1 c1.6,0.4,2.7,0.6,4.2,0.6H239l3.3-11l-8.2,1.1C232.6,241,228.2,240.8,228.7,239.3z M230.6,175.6l-4.2,7.5c-0.9,1.6-1.7,2.7-2.4,3.1 c-0.6,0.4-1.9,0.6-3.7,0.6h-2.2l-2.9,9.6h7.2c3.5,0,6.1-1.3,7.4-1.9c1.4-0.7,1.7-0.3,2.8-1.3l2.4-2.1h22.5l3-10h-16.4l2.9-5.5 L230.6,175.6L230.6,175.6z M263.8,239.5c-0.4-0.6-0.1-1.5,0.5-3.6l6.2-20.4h21.9c3.2,0,5.5-0.1,7-0.2c1.6-0.2,3.4-0.7,5.3-1.8 c2-1.1,3-2.2,3.8-3.5c0.9-1.3,2.5-4.2,3.8-8.6l7.7-25.8l-22.7,0.1c0,0-7,1-10.1,2.2c-3.1,1.3-7.6,4.8-7.6,4.8l2.1-7.1h-14 L248,240.8c-0.7,2.5-1.2,4.4-1.3,5.5c0,1.2,1.5,2.4,2.5,3.3c1.2,0.9,2.9,0.7,4.6,0.9c1.8,0.1,4.3,0.2,7.7,0.2h10.8l3.3-11.2 l-9.7,0.9C264.9,240.5,264.1,240,263.8,239.5z M274.5,201.8h23l-1.5,4.6c-0.2,0.1-0.7-0.2-3,0h-19.9L274.5,201.8z M279.1,186.4 h23.2l-1.7,5.5c0,0-10.9-0.1-12.7,0.2c-7.7,1.3-12.2,5.5-12.2,5.5L279.1,186.4z M296.5,221.7c-0.2,0.7-0.5,1.1-0.9,1.4 c-0.5,0.3-1.2,0.4-2.4,0.4h-3.3l0.2-5.6h-13.6l-0.6,27.3c0,2,0.2,3.1,1.6,4c1.4,1.1,5.9,1.3,11.9,1.3h8.5l3.1-10.2l-7.4,0.4 l-2.5,0.1c-0.3-0.1-0.7-0.3-1-0.6c-0.3-0.3-0.8-0.1-0.8-2.1l0.1-7l7.8-0.3c4.2,0,6-1.4,7.6-2.7c1.5-1.3,1.9-2.7,2.5-4.6l1.3-6.2 h-10.7L296.5,221.7z"></path> </g> </svg> 