<svg id="Layer_1" data-name="Layer 1" xmlns="http://www.w3.org/2000/svg" viewBox="0 0 306.86 306"><defs><style>.cls-1{fill:#fff;}.cls-2{fill:#0079c1;}</style></defs><title>American Express Logo</title><polygon class="cls-1" points="306 306 155.51 306 0 306 0 151.11 0 0 152.37 0 306 0 306 151.17 306 306 306 306"/><path class="cls-2" d="M365.45,288.12H264.89l-6.39-8.3v8.3H236.71V274.88a26.57,26.57,0,0,1-9.37,1.64h-3.55v11.6H191.48l-4.94-6.91-4.79,6.91H129.2v-50.7H182l4.9,6.8,4.84-6.8H377V72H71V196.28l10.61-24.73h21.13l5.45,12.69V171.55H134l3.4,10,3.4-10H253v4.72c4.2-3.24,9.65-4.72,15.61-4.72h34.82l5.46,12.69V171.55H329.7l6.08,9.43v-9.43h22.36v50.69h-22l-5.71-8.86v8.86H299.21l-2.94-7.52h-6.59l-2.94,7.52H268c-4.95,0-10.56-1-15-4.37v4.37H221.27L214.88,214v8.29H98.56l-2.93-7.52H89l-2.93,7.52H71V378H377V284.81a20.83,20.83,0,0,1-11.55,3.31Z" transform="translate(-71 -72)"/><path class="cls-2" d="M365.45,272.72H346.8v8.08h18.6c7.83,0,12.46-4.74,12.46-11.69,0-6.54-4.07-10.36-11.23-10.36h-8.55a3,3,0,0,1-3.24-3,2.92,2.92,0,0,1,3.24-2.94h15.56l3.55-8.09h-19c-7.83,0-12.52,4.79-12.52,11.34,0,6.8,4.44,10.71,11.29,10.71h8.5a3,3,0,0,1,3.3,3c0,1.8-1.4,2.94-3.3,2.94m-33,0H313.78v8.08h18.59c7.84,0,12.47-4.74,12.47-11.69,0-6.54-4.07-10.36-11.23-10.36h-8.55a3,3,0,0,1-3.24-3,2.93,2.93,0,0,1,3.24-2.94h15.56l3.55-8.09h-19c-7.83,0-12.52,4.79-12.52,11.34,0,6.8,4.43,10.71,11.29,10.71h8.49a3,3,0,0,1,3.3,3c0,1.8-1.39,2.94-3.3,2.94m-22.71-19.89v-8.09H280.34V280.8h29.37v-8.08H289.52v-6.14h19.72V258.7H289.52v-5.87Zm-46.47,0c2.79,0,4.23,1.7,4.23,3.71s-1.44,3.66-4.23,3.66H253.3v-7.37ZM253.3,268h3.55l10.77,12.77H278.9l-11.69-13.13c5.93-1.29,9.48-5.67,9.48-11.29,0-6.9-4.79-11.64-12.52-11.64h-20V280.8h9.17V268ZM231,257a3.87,3.87,0,0,1-4.23,4h-10.2v-8.14h10.2A3.92,3.92,0,0,1,231,257m-23.6-12.21V280.8h9.17V269.06h10.82c7.93,0,12.82-5.21,12.82-12.16,0-7.21-4.79-12.16-12.51-12.16ZM195.14,280.8h11.49L192.1,262.62l14.43-17.88H195.35l-8.5,11.08-8.5-11.08H166.86l14.42,18.08-14.37,18h11.18l8.5-11.18,8.55,11.18Zm-28.95-28v-8.09H136.83V280.8h29.36v-8.08H146v-6.14h19.73V258.7H146v-5.87Z" transform="translate(-71 -72)"/><path class="cls-2" d="M339.39,214.93h11.13V178.86H341.4v22.36L327,178.86H315.44v36.07h9.11V191.75l14.84,23.18Zm-51.46-15.2,5-12.37L298,199.73Zm16.23,15.2h10.3l-15.4-36.07h-11.9L271.7,214.93h10.1l3-7.37h16.39l3,7.37Zm-37.1,0h.73l3.75-8.09h-2.93c-5.77,0-9.17-3.5-9.17-9.69v-.51c0-5.41,3-9.43,9-9.43h9.69v-8.35H267.73c-11.33,0-17.41,7.53-17.41,17.78v.51c0,11.08,6.39,17.78,16.74,17.78m-30.34,0h9.18V178.86h-9.18v36.07Zm-17.1-28c2.78,0,4.23,1.7,4.23,3.71s-1.45,3.66-4.23,3.66h-9.94V187Zm-9.94,15.2h3.55L224,214.93h11.28l-11.69-13.14c5.92-1.29,9.47-5.67,9.47-11.28,0-6.9-4.79-11.65-12.51-11.65h-20v36.07h9.17V202.15ZM195.36,187v-8.09H166v36.07h29.37v-8.09h-20.2v-6.13h19.73v-7.88H175.16V187Zm-62,28h8l9.53-26.69v26.69h9.07V178.86H145.49l-8,23-8.08-23H114.79v36.07h9.07V188.24l9.47,26.69Zm-46.05-15.2,5-12.37,5,12.37Zm16.23,15.2h10.3l-15.4-36.07H86.51L71.05,214.93h10.1l3-7.37h16.38l3,7.37Z" transform="translate(-71 -72)"/></svg>