<?xml version="1.0" encoding="UTF-8"?> <!-- Generator: Adobe Illustrator 23.0.3, SVG Export Plug-In . SVG Version: 6.00 Build 0) --> <svg xmlns="http://www.w3.org/2000/svg" xmlns:xlink="http://www.w3.org/1999/xlink" id="Layer_1" x="0px" y="0px" viewBox="0 0 540 120" style="enable-background:new 0 0 540 120;" xml:space="preserve"> <style type="text/css"> .st0{fill:#FF0000;} </style> <g> <path class="st0" d="M32.656101,62.878151L18.028893,95.731178H7.356832l16.06813-35.132641 c-7.555605-3.836918-12.591443-10.790291-12.591443-23.620041C10.833518,18.992832,22.224194,10,35.774403,10H49.56292v85.731178 h-9.232986V62.878151H32.656101z M40.329933,17.793911h-4.91576c-7.433681,0-14.627209,4.915762-14.627209,19.184586 c0,13.788517,6.593143,18.225819,14.627209,18.225819h4.91576V17.793911z"></path> <path d="M94.059708,35.299267v60.431911h-9.232986V68.634453H70.918129v27.096725h-9.353065V35.299267h9.353065v25.657654 h13.908592V35.299267H94.059708z M142.14032,107.602158h-8.392441V95.731178h-25.899658v11.870979h-8.392448V88.057343h3.716843 c5.514297-12.831596,6.114685-31.534031,6.114685-47.602158v-5.155918h28.057335v52.758076h4.795685V107.602158z M128.111649,42.853027h-10.4319v1.080688c0,12.709675-0.598541,31.29203-5.634377,44.123627h16.066277V42.853027z M167.919907,96.56987c-12.469528,0-20.143356-9.949753-20.143356-28.533958c0-19.426586,5.396072-33.575333,18.225815-33.575333 c10.071671,0,16.666672,7.553757,16.666672,28.055492v5.157764h-25.181046c0,13.670288,3.836914,20.863815,11.270599,20.863815 c5.275986,0,9.473145-2.397842,11.870987-4.075226l2.159531,7.189835 C178.952194,94.652328,173.914505,96.56987,167.919907,96.56987z M157.608063,60h15.467758 c0-10.311829-1.67923-17.865589-7.073456-17.865589C160.246063,42.134411,158.20845,49.207863,157.608063,60z M201.613464,65.634377v30.096802h-9.353058V35.299267h9.353058v27.937267l14.507126-27.937267h9.473145l-14.987442,28.417572 l17.145126,32.014339h-10.191757L201.613464,65.634377z M228.950348,65.516144c0-18.946278,7.315445-31.055565,21.464188-31.055565 c5.394226,0,8.512527,1.439075,11.150528,3.116455l-1.319,8.874603c-2.517914-2.159538-6.114685-4.197147-9.951599-4.197147 c-6.715073,0-11.510757,7.553757-11.510757,22.781345c0,15.107521,3.596771,23.741966,11.150528,23.741966 c4.555527,0,8.034058-1.799301,10.191742-3.716843l2.157715,6.953377c-3.236542,2.756226-7.073471,4.555534-12.589615,4.555534 C236.744247,96.56987,228.950348,86.139809,228.950348,65.516144z"></path> <path d="M325.883759,95.731178h-36.689941L288.353271,110h-4.675598V90.817261h2.517914 c4.197144-3.480377,6.234772-13.071747,7.433685-25.301117C294.828186,52.806473,295.188416,33.860195,295.548645,10h29.974884 v80.817261h5.878235V110h-4.679321L325.883759,95.731178z M319.528931,14.915762h-18.584198 c-0.360229,21.702505-0.960632,38.249092-1.919373,50.60038c-1.078857,12.827904-2.99823,21.340431-6.234772,25.301117h26.738342 V14.915762z"></path> <path d="M356.22995,92.014336c8.032227,0,12.22937-6.473068,12.22937-6.473068l1.799316,4.551842 c0,0-4.555542,6.835144-14.146912,6.835144c-12.827911,0-18.706116-11.630829-18.706116-31.412109 c0-19.784969,7.433685-31.415798,17.627258-31.415798c10.430084,0,17.14328,10.912216,15.225769,32.376415h-27.336884 C343.161896,83.0215,347.477264,92.014336,356.22995,92.014336z M343.039978,62.035763h21.94635 c0.956909-16.064434-3.838776-23.257961-9.953461-23.257961C348.67804,38.777802,343.520294,46.930096,343.039978,62.035763z"></path> <path d="M407.197968,66.594994H386.57431v29.136185h-5.634399V35.299267h5.634399v26.736496h20.623657V35.299267h5.634369 v60.431911h-5.634369V66.594994z"></path> <path d="M426.155334,35.299267h5.630676v22.422966h4.440979c11.508911,0,18.942596,6.23476,18.942596,18.826206 c0,12.827904-7.914001,19.182739-19.304657,19.182739h-9.709595V35.299267z M431.786011,62.157688v29.136189h3.598602 c8.512512,0,14.268829-4.193459,14.268829-14.627213c0-10.189903-5.035828-14.508976-13.670288-14.508976H431.786011z"></path> <path d="M470.40271,39.976723v55.754456h-5.512451V35.299267h25.537598v4.677456H470.40271z"></path> <path d="M527.248962,53.645164c0-3.118305,0.23645-5.756302,0.480286-8.27422h-0.362061 c-0.838684,2.637997-1.917542,5.155914-3.236572,7.793911L504.46759,95.731178h-4.795685V35.299267h5.276001v41.965939 c0,3.236534-0.243835,5.874527-0.480316,8.51252h0.358398c0.838684-2.756226,2.035767-5.394218,3.236511-8.032211 l19.666748-42.446247h4.91394v60.431911h-5.394226V53.645164z"></path> </g> </svg> 