<?xml version="1.0" encoding="UTF-8"?> <!-- Generator: Adobe Illustrator 23.0.3, SVG Export Plug-In . SVG Version: 6.00 Build 0) --> <svg xmlns="http://www.w3.org/2000/svg" xmlns:xlink="http://www.w3.org/1999/xlink" id="Layer_1" x="0px" y="0px" viewBox="0 0 1290 606.536438" style="enable-background:new 0 0 1290 606.536438;" xml:space="preserve"> <style type="text/css"> .st0{fill:#F18B00;} .st1{fill:#0D61AB;} </style> <g> <path class="st0" d="M482.044861,419.257172c-5.206268-23.543243-16.073151-41.427551-31.466492-55.010315 c-5.206299-5.659485-11.772186-9.507843-19.015656-13.809357c-3.622284-2.037201-6.338196-3.395691-11.092377-5.206848 c-7.923279-2.943054-18.336945-6.564789-31.466522-5.206848c6.564789-3.395691,16.073151-3.395691,26.260254-3.169067 c8.149872,0.905273,15.167847,3.169067,22.184723,5.206818c5.886078,3.169098,11.772186,6.564789,17.657166,9.734436 c14.261444-42.785492,8.828552-101.418091-7.244598-139.223343c-15.393341-39.616394-38.031281-72.214813-67.235138-98.0224 c-28.75061-26.260231-63.38623-46.860428-109.115295-56.142204c-22.637955-4.980236-51.161972-4.07494-71.98822,0.679249 c-21.732651,5.659489-39.843002,15.167309-55.462952,26.712879c-14.714661,12.903519-28.976128,26.486282-38.484505,44.37059 c-3.395691,3.395691-4.980789,9.055176-7.923279,13.130112c-2.037193,4.98024-4.300987,9.734436-6.564781,14.262024 c-3.395691,10.413666-7.244583,20.147537-9.055176,32.145752c-5.206284,21.279449-6.112686,50.708771-2.716995,73.799927 c2.716995,24.67511,9.960472,45.049286,17.65715,64.74472c4.754189,9.281769,9.055176,18.789612,14.261459,27.39212 c4.980789,8.828583,11.31897,16.299225,16.978455,24.222504c13.129562,14.262024,27.392136,27.618164,43.690781,38.484497 c33.278229,21.732635,71.762726,38.484497,124.055481,41.200928c1.131897-2.03717-1.35849-6.338715-2.037201-9.055176 c-0.905273-3.169067-1.131897-6.791382-2.03717-9.734406c-0.678711-7.017975-0.905304-15.167328,0-22.185303 c2.03717,0.452637,2.03717,3.169098,3.395691,4.527588c1.131897,1.35849,1.585083,3.169098,3.169067,3.848328 c1.358521,3.622314,4.074402,5.886108,5.886108,9.055206c4.980774,4.980225,8.828552,11.31897,14.941254,14.941254 c4.980774,4.980225,11.545563,8.375916,17.657135,12.450867c6.564789,3.395691,11.997681,7.470612,19.695465,9.734406 c12.904053,6.791382,30.334625,9.281799,47.766266,11.771637c17.431671,2.263794,34.183533,5.432892,50.256683,9.055176 c14.714661,4.980225,29.882538,9.734436,41.880188,17.657715c6.338196,3.622284,12.67746,7.470612,18.336945,11.771576 c2.71698,2.263794,6.338196,3.622314,8.60199,6.564819c3.395691,1.358521,4.980774,4.754211,8.60199,5.886108 c10.187073,9.734375,20.147522,19.468811,28.75061,30.787781c3.622314,6.564819,8.376465,11.545593,11.092346,19.015686 c2.490417,2.716431,3.169128,6.791382,5.206299,9.734375c0.226624,3.622314,3.622314,8.149902,0.678711,11.092407 c-4.754211,0.67926-3.848877-4.301025-5.886108-6.564819c-1.585083-2.490356-3.622253-4.75415-4.527588-7.923279 c-7.696655-7.923279-14.488037-16.751831-22.864502-24.222473c-8.149902-7.244019-16.525269-14.488037-26.03363-20.374146 c-18.336975-12.903503-39.389832-22.864563-64.064972-29.429321c-24.223022-7.017975-51.38855-9.734406-83.081665-7.923279 c-13.809387,1.811157-27.165527,4.300964-38.484497,8.375916c-12.450867,3.169128-26.260254,4.754211-39.843018,6.564819 c-53.425751,3.395691-112.963089-9.507874-152.806091-28.750092c-21.279449-9.734436-40.748299-21.506042-57.500153-35.99411 c-9.055176-6.564789-16.525253-14.941254-24.223038-22.864532c-7.017986-8.375946-14.261463-16.525818-19.695454-26.712891 c-7.017982-8.602539-11.092369-20.374146-16.978455-30.108582c-3.848892-11.545563-9.281777-21.732635-11.772172-34.636139 c-4.074388-11.771637-6.564782-24.901733-7.92328-39.163757c-0.226601-3.848328-2.037194-11.545563-2.037194-17.657715 c0-0.452637,0.678696-1.131897,0.678696-2.037201c-0.226601-5.659485-1.585098-14.261993,0-19.015625 C0.531,255.132645,2.794795,239.059479,5.285189,226.835205c2.263794-13.130112,5.886086-25.128326,9.733873-36.673355 c3.848892-11.771606,9.055176-22.185287,13.809364-33.277649c3.169092-4.754196,5.432884-10.187088,8.601974-14.941269 c2.490395-5.206833,6.338184-9.055176,8.601978-14.262016c2.490395-1.358498,2.94249-4.980232,5.206284-6.564781 c1.131897-2.943039,3.622292-4.074936,4.527588-7.244026c2.037193-1.81115,3.848892-4.074944,5.206284-6.564789 c2.037193-2.037193,4.074387-3.848335,5.206284-6.564781c7.696678-7.696678,14.714661-16.299202,22.86454-23.543236 c8.149887-7.696678,17.205063-14.262012,25.580437-21.506042c5.206284-2.490395,9.055176-6.564781,14.261459-9.055176 c4.074387-3.622292,9.733871-5.432888,13.809372-9.05518c10.865768-4.754189,20.147537-11.092369,31.919708-14.941261 c10.187073-5.206837,22.411346-8.602528,33.956909-12.450868c25.128342-6.338734,50.482162-10.866322,81.72319-9.734425 c1.131897,0.226601,1.810608-1.131897,2.037201,0c59.311859,1.811146,102.323944,19.694899,139.223328,43.691338 c36.447327,24.222488,64.744751,56.821449,84.892303,97.34314c19.695435,40.069046,31.014404,94.852753,21.506042,152.35347 c-4.754211,25.807037-12.224304,48.67157-21.506042,69.951019c-5.206299,9.960449-10.187103,20.374146-16.299774,29.429321 c-2.71701,4.980225-5.659485,9.507813-9.055176,13.809357c-1.131897,2.490387-2.71701,4.527588-4.527588,6.564789 c-0.678711,1.131897-1.810608,2.263794-2.71701,3.169098c-0.226593,0.67923-0.453186,1.131897-1.35849,1.35849 C482.950165,419.709808,482.044861,419.935852,482.044861,419.257172"></path> <path class="st0" d="M466.423798,436.235626c-7.696655-2.943054-9.055176-12.450867-12.450867-19.694916 c-0.67868-2.716431-1.131897-6.564789,0-9.055176c0.453217-0.226593,0.678711-0.67923,1.358521-0.67923 c1.810577-1.131897,3.848877,0.226593,6.564758,1.35849c3.848907,4.300995,6.112701,9.96048,7.923279,16.299194 C469.819489,429.670288,470.272705,435.103729,466.423798,436.235626"></path> <path class="st0" d="M408.923676,425.1427c0.226593-0.67926,0.67868-0.452667,0.67868,0 c11.545563,1.35849,16.978455,9.281769,17.657166,21.506042c-1.131897,6.791382-4.754211,10.866302-11.092377,12.450867 c-15.619965,0.226593-24.448547-14.035431-19.015656-28.750092C400.321686,427.859131,402.358887,424.46344,408.923676,425.1427"></path> <path class="st1" d="M741.701416,378.734924c2.03717,9.055176,6.791382,15.846558,11.99762,21.732635 c5.206299,6.112122,11.319031,11.31897,18.789063,15.167297c7.018005,4.300995,14.488098,7.923279,23.31665,10.413696 c4.300964,1.584534,8.376465,3.169067,13.582764,3.848328c3.622314,2.037201,8.149902,2.943054,8.376465,8.375916 c-0.226563,6.338745-4.527588,8.602539-9.733826,9.734436c-5.432922-1.131897-11.997681-0.905304-16.525269-2.943054 c-11.545593-1.35849-20.600769-4.980225-30.108032-8.375916c-18.336975-7.244019-33.730286-17.431091-46.634399-30.108582 c-2.71698-4.300964-6.338135-7.923279-9.055176-11.998199c-2.71698-4.300995-4.75415-9.507843-7.470032-13.582764 c-22.411377-2.943054-37.579224-13.130127-51.161987-24.901733c-12.450867-14.262024-22.184753-31.013885-26.260254-53.425781 c-4.75415-21.506042-3.395691-48.444962,2.263794-69.272324c12.224304-40.295639,38.257935-67.008514,87.38269-70.856857 c13.582764,0.452652,25.354919,2.037186,36.220703,6.112137c10.865784,3.848328,21.279419,11.092361,29.429321,18.789597 c0.678711,0.679245,0.905273,0.679245,1.585083,1.584549c1.810608,2.490387,5.886108,5.886078,8.376526,9.055176 c0.453186,0.679245,0.226563,1.584549,0.67865,2.263794c0.905334,1.131897,2.263794,1.811142,2.942505,2.943039 c0.453186,0.679245,0.226624,1.584549,0.678711,2.263794c0.678711,0.905304,1.358459,2.263794,2.263794,3.848343 c0.453186,0.679245,1.358459,1.131897,1.585083,1.584549c1.358521,2.490387,1.810608,5.432877,2.942505,8.375916 c1.131897,2.943054,2.71698,5.432892,3.848877,8.375931c2.942505,8.602539,4.754211,18.789612,6.112671,29.429337 c2.942505,30.334625-3.169067,57.274078-14.261414,77.421631c-5.206299,10.63974-12.450867,19.015656-21.052856,26.260254 C762.980835,368.547852,752.115051,373.528076,741.701416,378.734924 M705.480713,189.028854 c-6.564819,0.452652-10.413696,3.622299-15.846558,5.206833c-3.395691,3.169098-7.923279,5.659485-10.64032,9.734436 c-4.300964,2.490387-5.432861,7.923279-9.055176,11.31897c-2.942444,7.244019-5.659485,15.393906-7.470032,24.901733 c-1.810608,9.281769-2.942505,19.921509-2.942505,30.108582c-0.226624,26.03363,5.432861,51.614594,15.846558,67.008514 c6.112671,7.470642,13.582764,13.582764,22.637939,18.110352c5.206299,0.452637,9.281799,2.263794,14.941284,2.263794 c3.169067-1.131897,8.601929,0,10.640259-2.263794c4.527588,0.452637,5.659485-2.716431,9.733887-2.943054 c2.03717-2.03717,4.527588-4.074921,7.470032-5.206818c2.717041-2.943054,5.206299-6.112152,8.149902-9.055176 c1.585083-2.263794,2.263794-5.206848,4.527588-6.791382c13.129578-25.128357,14.488037-71.082916,6.112671-100.059601 c-3.169067-10.639725-7.696655-19.242249-12.904053-26.260223c-5.432861-5.659485-11.997681-10.413681-19.468872-14.262024 c-6.112671-1.131897-11.772156-2.943039-19.695435-2.263794c-0.453186,0-0.905273,0.226608-0.678711,0.679245h-1.358459V189.028854 z"></path> <path class="st1" d="M864.399475,167.976013c11.772156,0.452652,25.580444-0.905304,36.220703,0.679245 c2.263794,3.622299,1.358521,7.923279,1.585083,11.998215c0.905334,55.236359,0,114.321625,0,170.916473 c0,4.527588,0,9.055176,0,13.582764c-0.226563,3.848328,0.905334,7.923279-1.585083,11.31897 c-5.206299,1.35849-12.677429,0.67923-19.468811,0.67923c-7.018005,0-14.036011,0.905304-18.789063-1.584534 c-1.358521-66.781921-1.358521-138.770691,0-205.552612C862.587769,169.10791,863.267578,168.428665,864.399475,167.976013"></path> <path class="st1" d="M954.72467,167.976013h35.315369c3.169128,4.30098,4.074402,10.866318,5.206299,17.431107 c10.640259,40.521683,21.279419,81.269974,30.787842,122.697525c2.263794,0.226593,1.585083-2.490387,2.263794-3.848328 c1.131836-0.905304,0.453125-3.622314,1.585083-4.527588c0.453247-3.395691,2.490356-4.980255,2.263794-9.055176 c2.717041-4.980255,3.39563-11.99823,6.112671-17.431122c3.169067-12.224274,7.017944-23.543228,10.640259-35.315399 c3.395752-12.224274,7.92334-23.3172,10.640259-36.220703c4.980835-10.413681,6.112671-24.449097,11.997681-33.956924h14.941284 c5.432861,10.187073,7.244629,23.769836,11.997681,34.636169c2.942505,12.224258,7.244629,23.317184,10.413696,35.315399 c7.470093,23.317184,15.167847,46.634384,21.959229,70.856888c2.942505-4.527588,2.942505-11.99823,5.206299-17.431122 c1.358521-5.886078,2.490356-11.99823,4.527588-17.205048c5.886108-23.769836,11.31897-47.992325,18.110352-70.630264 c2.490356-11.99823,4.980713-24.222488,9.055176-34.636169c8.601929-1.35849,22.184692-1.35849,30.787842,0 c0.678711,8.828583-3.395752,18.33696-5.886108,26.260239c-1.358521,9.734421-4.980835,17.205048-6.791382,26.260223 c-5.432861,16.978455-9.508423,35.088806-14.941284,51.840668c-4.301025,18.110352-9.960449,34.636169-14.261475,52.746521 c-2.942505,8.375916-4.980835,17.431091-7.470093,26.260223c-2.942505,8.149872-3.848877,18.110352-8.376465,24.901733h-21.052856 c-5.432861-9.507813-7.244507-22.411346-11.997681-32.372345c-10.413574-33.277679-22.184692-65.197388-32.371826-98.70166 c-3.622192,3.622299-3.39563,11.092377-6.112671,15.846558c-1.585083,5.659485-3.169067,11.31897-5.206299,16.525818 c-2.942383,11.545563-7.244507,21.279449-9.733765,33.051605c-4.074463,10.413666-7.244629,21.732635-10.640381,33.051605 c-4.527588,9.734436-6.112671,22.637939-11.31897,31.693115c-5.659424,1.584564-14.261414,0.226624-21.052795,0.67926 c-5.206299-5.886078-5.886108-16.751862-9.055176-24.901733c-2.490417-8.602539-4.300964-17.657715-7.470093-25.580994 c-4.074402-18.336945-10.187073-34.636139-14.261475-52.74649c-5.432861-16.751862-10.187073-34.636169-14.941223-51.840683 c-2.71698-8.375916-4.754211-17.205048-7.470093-25.580978c-1.131897-9.055176-7.470093-17.205063-5.206299-27.165527 C952.914063,168.654709,953.819336,168.202057,954.72467,167.976013"></path> <path class="st1" d="M1251.960327,167.976013c11.772217,0.452652,25.580444-0.905304,36.220703,0.679245 c2.490479,7.923279,1.585205,16.29921,1.585205,24.901733v158.012955c0,8.602509,1.131836,16.978455-1.585205,24.901733 c-8.14978,0.905273-20.147461,1.131897-30.10791,0.67923c-2.942505-0.226593-6.338257,0.67926-8.376587-1.584534 c-2.490356-7.923279-1.585083-16.299194-1.585083-24.901733V194.010193c0-9.507828-0.905273-18.563004,1.585083-24.901733 C1250.376343,168.654709,1251.055054,168.202057,1251.960327,167.976013"></path> </g> </svg> 